<svg xmlns="http://www.w3.org/2000/svg" width="1180" height="648" viewBox="0 0 1180 648" role="img" font-family="-apple-system,BlinkMacSystemFont,Segoe UI,Helvetica,Arial,sans-serif" aria-label="Your repository feeds Loadout, which holds instructions, memory, token accounting, repo hygiene, sessions and the launcher, and starts your agent">
<defs><radialGradient id="glow" cx="50%" cy="50%" r="50%"><stop offset="0%" stop-color="#e0a458" stop-opacity="0.15"/><stop offset="100%" stop-color="#e0a458" stop-opacity="0"/></radialGradient><marker id="arrow" viewBox="0 0 10 10" refX="9" refY="5" markerWidth="7" markerHeight="7" orient="auto-start-reverse"><path d="M 0 0 L 10 5 L 0 10 z" fill="#3d4757"/></marker><marker id="arrowAmber" viewBox="0 0 10 10" refX="9" refY="5" markerWidth="7" markerHeight="7" orient="auto-start-reverse"><path d="M 0 0 L 10 5 L 0 10 z" fill="#e0a458"/></marker></defs>
<rect width="1180" height="648" rx="14" fill="#0f1218"/>
<text x="590" y="48" text-anchor="middle" font-size="25" font-weight="700" fill="#f4f6fa">Everything in one place, and out of your repo</text>
<circle cx="590" cy="336" r="270" fill="url(#glow)"/>
<line x1="514.6" y1="279.9" x2="320" y2="166" stroke="#3d4757" stroke-width="1.4"/>
<circle cx="320" cy="166" r="3" fill="#3d4757"/>
<line x1="590.0" y1="242.0" x2="590" y2="166" stroke="#3d4757" stroke-width="1.4"/>
<circle cx="590" cy="166" r="3" fill="#3d4757"/>
<line x1="665.4" y1="279.9" x2="860" y2="166" stroke="#3d4757" stroke-width="1.4"/>
<circle cx="860" cy="166" r="3" fill="#3d4757"/>
<line x1="515.9" y1="393.9" x2="320" y2="516" stroke="#3d4757" stroke-width="1.4"/>
<circle cx="320" cy="516" r="3" fill="#3d4757"/>
<line x1="590.0" y1="430.0" x2="590" y2="516" stroke="#3d4757" stroke-width="1.4"/>
<circle cx="590" cy="516" r="3" fill="#3d4757"/>
<line x1="664.1" y1="393.9" x2="860" y2="516" stroke="#3d4757" stroke-width="1.4"/>
<circle cx="860" cy="516" r="3" fill="#3d4757"/>
<rect x="28" y="284" width="168" height="104" rx="11" fill="#171c25" stroke="#2a323f"/>
<rect x="28" y="284" width="3" height="104" rx="1.5" fill="#6fb3c4"/>
<text x="112" y="318" text-anchor="middle" font-size="16" font-weight="600" fill="#f4f6fa">Your repository</text>
<text x="112" y="342" text-anchor="middle" font-size="12" fill="#6d7889">source, and</text>
<text x="112" y="360" text-anchor="middle" font-size="12" fill="#6d7889">nothing else</text>
<rect x="984" y="284" width="168" height="104" rx="11" fill="#171c25" stroke="#2a323f"/>
<rect x="984" y="284" width="3" height="104" rx="1.5" fill="#6fb3c4"/>
<text x="1068" y="318" text-anchor="middle" font-size="16" font-weight="600" fill="#f4f6fa">Your agent</text>
<text x="1068" y="342" text-anchor="middle" font-size="12" fill="#6d7889">Claude Code</text>
<text x="1068" y="360" text-anchor="middle" font-size="12" fill="#6d7889">or Codex</text>
<line x1="202" y1="336" x2="486" y2="336" stroke="#3d4757" stroke-width="1.8" marker-end="url(#arrow)"/>
<text x="346" y="323" text-anchor="middle" font-size="11.5" fill="#6d7889">scanned</text>
<line x1="694" y1="336" x2="978" y2="336" stroke="#e0a458" stroke-width="1.8" marker-end="url(#arrowAmber)"/>
<text x="834" y="323" text-anchor="middle" font-size="11.5" fill="#e0a458">one context</text>
<path d="M 1068 388 V 586 H 740" fill="none" stroke="#3d4757" stroke-width="1.4" stroke-dasharray="4 4" marker-end="url(#arrow)"/>
<text x="880" y="578" text-anchor="middle" font-size="11.5" fill="#6d7889">what it learned goes back</text>
<rect x="205" y="104" width="230" height="62" rx="9" fill="#171c25" stroke="#2a323f"/>
<text x="320" y="131" text-anchor="middle" font-size="15" font-weight="600" fill="#f4f6fa">Instructions</text>
<text x="320" y="150" text-anchor="middle" font-size="11.5" fill="#95a0b1">72, picked for your task</text>
<rect x="475" y="104" width="230" height="62" rx="9" fill="#171c25" stroke="#2a323f"/>
<text x="590" y="131" text-anchor="middle" font-size="15" font-weight="600" fill="#f4f6fa">Memory</text>
<text x="590" y="150" text-anchor="middle" font-size="11.5" fill="#95a0b1">the facts worth keeping</text>
<rect x="745" y="104" width="230" height="62" rx="9" fill="#171c25" stroke="#2a323f"/>
<text x="860" y="131" text-anchor="middle" font-size="15" font-weight="600" fill="#f4f6fa">Tokens</text>
<text x="860" y="150" text-anchor="middle" font-size="11.5" fill="#95a0b1">what it costs, up front</text>
<rect x="205" y="516" width="230" height="62" rx="9" fill="#171c25" stroke="#2a323f"/>
<text x="320" y="543" text-anchor="middle" font-size="15" font-weight="600" fill="#f4f6fa">Your repos</text>
<text x="320" y="562" text-anchor="middle" font-size="11.5" fill="#95a0b1">protect · drift · migrate</text>
<rect x="475" y="516" width="230" height="62" rx="9" fill="#171c25" stroke="#2a323f"/>
<text x="590" y="543" text-anchor="middle" font-size="15" font-weight="600" fill="#f4f6fa">Sessions</text>
<text x="590" y="562" text-anchor="middle" font-size="11.5" fill="#95a0b1">resume, and hand over</text>
<rect x="745" y="516" width="230" height="62" rx="9" fill="#171c25" stroke="#2a323f"/>
<text x="860" y="543" text-anchor="middle" font-size="15" font-weight="600" fill="#f4f6fa">Launcher</text>
<text x="860" y="562" text-anchor="middle" font-size="11.5" fill="#95a0b1">a UI over the same commands</text>
<circle cx="590" cy="336" r="94" fill="#171c25" stroke="#e0a458" stroke-width="1.8"/>
<text x="590" y="324" text-anchor="middle" font-size="24" font-weight="700" font-family="Cascadia Mono,SFMono-Regular,Consolas,Menlo,monospace" fill="#f4f6fa">loadout</text>
<rect x="566" y="338" width="48" height="2" rx="1" fill="#e0a458"/>
<text x="590" y="362" text-anchor="middle" font-size="12.5" fill="#95a0b1">one workspace,</text>
<text x="590" y="379" text-anchor="middle" font-size="12.5" fill="#95a0b1">versioned if you like</text>
<text x="590" y="624" text-anchor="middle" font-size="12" fill="#6d7889">Windows, Linux and macOS natively  ·  every command takes --json  ·  nothing changes without a preview and a snapshot</text>
</svg>
